<svg width="270" height="235" viewBox="0 0 270 235" fill="none" xmlns="http://www.w3.org/2000/svg">
<g clip-path="url(#clip0_1455_5051)">
<path d="M243.149 227.668C244.171 227.726 244.736 226.574 243.963 225.902L243.886 225.625C243.896 225.602 243.906 225.58 243.916 225.558C244.95 223.322 248.455 223.337 249.48 225.577C250.39 227.565 251.548 229.556 251.833 231.658C251.961 232.585 251.904 233.531 251.677 234.441C253.809 230.217 254.931 225.604 254.931 220.965C254.931 219.799 254.861 218.634 254.717 217.471C254.598 216.52 254.435 215.575 254.224 214.638C253.083 209.576 250.612 204.754 247.048 200.727C245.335 199.877 243.906 198.549 243.043 196.958C242.733 196.384 242.49 195.766 242.375 195.137C242.57 195.16 243.11 192.466 242.963 192.301C243.235 191.927 243.721 191.741 244.018 191.376C245.494 189.561 247.527 189.878 248.589 192.345C250.857 193.383 250.879 195.105 249.487 196.761C248.602 197.814 248.48 199.239 247.704 200.367C247.784 200.46 247.867 200.55 247.947 200.643C249.412 202.348 250.679 204.18 251.748 206.105C251.446 203.966 251.892 201.388 252.652 199.727C253.517 197.833 255.139 196.239 256.567 194.602C258.282 192.637 261.799 193.494 262.102 195.987C262.105 196.011 262.107 196.035 262.11 196.059C261.898 196.167 261.69 196.283 261.487 196.404C260.329 197.099 260.73 198.727 262.102 198.919L262.133 198.923C262.056 199.616 261.925 200.304 261.733 200.979C263.565 207.406 259.61 209.746 253.962 209.851C253.838 209.909 253.716 209.967 253.592 210.022C254.164 211.484 254.621 212.983 254.96 214.502C255.263 215.844 255.474 217.201 255.593 218.564C255.74 220.283 255.727 222.011 255.567 223.728L255.577 223.667C255.982 221.776 257.114 220.011 258.757 218.787C261.205 216.963 264.663 216.292 267.303 214.826C268.574 214.12 270.203 215.032 269.981 216.369L269.97 216.433C269.577 216.578 269.194 216.746 268.823 216.934C268.611 217.043 268.403 217.158 268.2 217.28C267.042 217.975 267.442 219.603 268.814 219.795L268.845 219.799C268.868 219.802 268.887 219.805 268.909 219.808C268.235 221.26 267.295 222.609 266.119 223.771C264.973 229.381 260.053 229.913 254.79 228.28H254.787C254.212 230.553 253.371 232.774 252.291 234.89H243.372C243.34 234.801 243.312 234.708 243.283 234.618C244.107 234.664 244.939 234.621 245.751 234.485C245.089 233.748 244.427 233.006 243.765 232.269C243.75 232.255 243.737 232.24 243.724 232.226C243.388 231.849 243.049 231.475 242.714 231.098L242.714 231.098C242.693 229.941 242.846 228.787 243.149 227.668Z" fill="#F2F2F2"/>
<path d="M79.0625 234.464C79.0625 234.76 79.3248 234.998 79.6515 234.998H269.342C269.669 234.998 269.931 234.76 269.931 234.464C269.931 234.168 269.669 233.93 269.342 233.93H79.6515C79.3248 233.93 79.0625 234.168 79.0625 234.464Z" fill="#CCCCCC"/>
<path d="M107.847 234.774H20.5343C9.88804 234.774 1.22656 226.917 1.22656 217.26V47.06C1.22656 37.4033 9.88804 29.5469 20.5343 29.5469H107.847C118.493 29.5469 127.155 37.4033 127.155 47.06V217.26C127.155 226.917 118.493 234.774 107.847 234.774Z" fill="#3F3D56"/>
<path d="M127.153 92.1484C126.702 92.1484 126.336 92.4807 126.336 92.8893V116.598C126.336 117.006 126.702 117.339 127.153 117.339C127.603 117.339 127.97 117.006 127.97 116.598V92.8893C127.97 92.4807 127.603 92.1484 127.153 92.1484Z" fill="#3F3D56"/>
<path d="M125.315 47.0586V217.256C125.315 225.661 118.103 232.537 108.983 233.07H108.979C108.844 233.078 108.709 233.085 108.57 233.089C108.329 233.1 108.088 233.104 107.843 233.104C107.843 233.104 106.945 233.044 105.303 232.933C103.645 232.822 101.231 232.655 98.2214 232.437C97.3188 232.374 96.3672 232.304 95.3625 232.229C93.3614 232.081 91.1641 231.918 88.8076 231.733C87.8683 231.663 86.8963 231.585 85.9039 231.507C80.8315 231.111 75.1505 230.648 69.1592 230.122C68.1464 230.036 67.1254 229.947 66.0962 229.855C65.8266 229.829 65.553 229.807 65.2793 229.781C61.0074 229.399 3.0625 219.242 3.0625 217.256V47.0586C3.0625 38.305 10.8835 31.2109 20.5341 31.2109H30.9648C32.6311 31.2109 33.9707 32.389 34.1136 33.8967C34.1259 33.9967 34.1381 34.0967 34.1585 34.1967C34.4608 35.7119 35.9923 36.7676 37.6912 36.7676H90.6863C92.3853 36.7676 93.9168 35.7119 94.219 34.1967C94.2394 34.0967 94.2517 33.9967 94.2639 33.8967C94.4069 32.389 95.7464 31.2109 97.4127 31.2109H107.843C117.494 31.2109 125.315 38.305 125.315 47.0586Z" fill="white"/>
<path d="M0.81681 74.3672C0.366326 74.3672 0 74.6995 0 75.1081V81.0352C0 81.4438 0.366331 81.7761 0.81681 81.7761C1.26729 81.7761 1.63362 81.4438 1.63362 81.0352V75.1081C1.63362 74.6995 1.26729 74.3672 0.81681 74.3672Z" fill="#3F3D56"/>
<path d="M0.81681 92.1484C0.366326 92.1484 0 92.4807 0 92.8893V104.373C0 104.782 0.366331 105.114 0.81681 105.114C1.26729 105.114 1.63362 104.782 1.63362 104.373V92.8893C1.63362 92.4807 1.26729 92.1484 0.81681 92.1484Z" fill="#3F3D56"/>
<path d="M0.81681 108.453C0.366326 108.453 0 108.785 0 109.194V120.678C0 121.086 0.366331 121.419 0.81681 121.419C1.26729 121.419 1.63362 121.086 1.63362 120.678V109.194C1.63362 108.785 1.26729 108.453 0.81681 108.453Z" fill="#3F3D56"/>
<path d="M30.6806 33.8047H15.0598C14.975 33.8047 14.9062 33.867 14.9062 33.9439V35.5177C14.9062 35.5946 14.975 35.6569 15.0598 35.6569H30.6806C30.7653 35.6569 30.8341 35.5946 30.8341 35.5177V33.9439C30.8341 33.867 30.7653 33.8047 30.6806 33.8047Z" fill="#E6E6E6"/>
<path d="M99.993 35.6589C100.895 35.6589 101.627 34.9955 101.627 34.1771C101.627 33.3587 100.895 32.6953 99.993 32.6953C99.0908 32.6953 98.3594 33.3587 98.3594 34.1771C98.3594 34.9955 99.0908 35.6589 99.993 35.6589Z" fill="#E6E6E6"/>
<path d="M104.485 35.6589C105.387 35.6589 106.119 34.9955 106.119 34.1771C106.119 33.3587 105.387 32.6953 104.485 32.6953C103.583 32.6953 102.852 33.3587 102.852 34.1771C102.852 34.9955 103.583 35.6589 104.485 35.6589Z" fill="#E6E6E6"/>
<path d="M108.977 35.6589C109.88 35.6589 110.611 34.9955 110.611 34.1771C110.611 33.3587 109.88 32.6953 108.977 32.6953C108.075 32.6953 107.344 33.3587 107.344 34.1771C107.344 34.9955 108.075 35.6589 108.977 35.6589Z" fill="#E6E6E6"/>
<path d="M98.6252 134.005H29.339C28.2474 134.005 27.3594 133.2 27.3594 132.21C27.3594 131.22 28.2474 130.414 29.339 130.414H98.6252C99.7167 130.414 100.605 131.22 100.605 132.21C100.605 133.2 99.7167 134.005 98.6252 134.005Z" fill="#E6E6E6"/>
<path d="M64.2355 203.58C80.0885 203.58 92.9398 191.924 92.9398 177.544C92.9398 163.165 80.0885 151.508 64.2355 151.508C48.3826 151.508 35.5312 163.165 35.5312 177.544C35.5312 191.924 48.3826 203.58 64.2355 203.58Z" fill="#6C63FF"/>
<path d="M68.7954 169.047C66.373 169.138 63.6343 169.288 61.8438 170.975C60.2883 172.439 59.9474 174.613 61.5248 176.177C63.1064 177.745 65.5655 177.957 67.3886 179.18C69.5293 180.616 69.2157 183.458 67.1441 184.819C64.7013 186.424 61.5473 185.676 59.314 184.149C58.7417 183.757 58.1862 184.634 58.752 185.021C60.7528 186.389 63.3638 187.151 65.8377 186.496C68.0704 185.905 69.8012 184.254 69.9772 182.106C70.0612 181.081 69.7399 180.04 69.0371 179.231C68.2953 178.377 67.2267 177.851 66.1465 177.423C64.287 176.687 61.0853 175.734 61.6259 173.336C62.2812 170.43 66.1809 170.155 68.7954 170.057C69.5095 170.031 69.5132 169.021 68.7954 169.047Z" fill="white"/>
<path d="M64.3021 167.675L64.1953 189.848C64.1922 190.498 65.3057 190.499 65.3088 189.848L65.4156 167.675C65.4187 167.025 64.3052 167.024 64.3021 167.675Z" fill="white"/>
<path d="M216.318 0H74.7958C69.6043 0 65.3828 3.82911 65.3828 8.53808V96.5048C65.3828 101.214 69.6043 105.043 74.7958 105.043H216.318C221.509 105.043 225.731 101.214 225.731 96.5048V8.53808C225.731 3.82911 221.509 0 216.318 0Z" fill="white"/>
<path d="M144.899 52.3078C153.646 52.3078 160.736 45.8764 160.736 37.943C160.736 30.0095 153.646 23.5781 144.899 23.5781C136.153 23.5781 129.062 30.0095 129.062 37.943C129.062 45.8764 136.153 52.3078 144.899 52.3078Z" fill="#6C63FF"/>
<path d="M147.906 31.5316C145.946 31.6049 143.739 31.7176 142.256 33.0409C141.028 34.137 140.598 35.8434 141.727 37.134C142.915 38.4928 144.892 38.7507 146.443 39.619C147.407 40.1587 148.046 40.9763 148.067 42.027C148.086 43.0108 147.586 43.9298 146.749 44.5464C144.696 46.059 141.897 45.4328 139.955 44.1099C139.572 43.8496 139.202 44.434 139.58 44.6913C141.188 45.787 143.259 46.4233 145.261 45.9519C147.103 45.518 148.587 44.2034 148.787 42.4469C148.997 40.5955 147.657 39.3349 145.919 38.6116C144.331 37.9506 141.545 37.2463 141.807 35.1926C142.141 32.5815 145.665 32.2887 147.906 32.205C148.382 32.1872 148.385 31.5137 147.906 31.5316Z" fill="white"/>
<path d="M144.503 30.3096L144.414 48.7855C144.412 49.2189 145.154 49.2194 145.156 48.7855L145.245 30.3096C145.248 29.8762 144.505 29.8757 144.503 30.3096Z" fill="white"/>
<path d="M216.318 0H74.7958C69.6043 0 65.3828 3.82911 65.3828 8.53808V96.5048C65.3828 101.214 69.6043 105.043 74.7958 105.043H216.318C221.509 105.043 225.731 101.214 225.731 96.5048V8.53808C225.731 3.82911 221.509 0 216.318 0ZM224.741 96.5048C224.741 100.72 220.965 104.145 216.318 104.145H74.7958C70.1487 104.145 66.3726 100.72 66.3726 96.5048V8.53808C66.3726 4.32292 70.1487 0.897802 74.7958 0.897802H216.318C220.965 0.897802 224.741 4.32292 224.741 8.53808V96.5048Z" fill="#3F3D56"/>
<path d="M129.24 8.6875H115.353C114.655 8.6875 114.086 9.20375 114.086 9.83669C114.086 10.4741 114.655 10.9904 115.353 10.9904H129.24C129.938 10.9904 130.507 10.4741 130.507 9.83669C130.507 9.20375 129.938 8.6875 129.24 8.6875Z" fill="#E6E6E6"/>
<path d="M152.498 8.6875H138.611C137.913 8.6875 137.344 9.20375 137.344 9.83669C137.344 10.4741 137.913 10.9904 138.611 10.9904H152.498C153.195 10.9904 153.765 10.4741 153.765 9.83669C153.765 9.20375 153.195 8.6875 152.498 8.6875Z" fill="#E6E6E6"/>
<path d="M175.763 8.6875H161.876C161.179 8.6875 160.609 9.20375 160.609 9.83669C160.609 10.4741 161.179 10.9904 161.876 10.9904H175.763C176.461 10.9904 177.03 10.4741 177.03 9.83669C177.03 9.20375 176.461 8.6875 175.763 8.6875Z" fill="#E6E6E6"/>
<path d="M198.658 60.3828H92.4421C88.0227 60.3828 84.4297 63.6418 84.4297 67.6505V74.2135C84.4297 78.2221 88.0227 81.4812 92.4421 81.4812H198.658C203.077 81.4812 206.67 78.2221 206.67 74.2135V67.6505C206.67 63.6418 203.077 60.3828 198.658 60.3828Z" fill="#6C63FF"/>
<path d="M36.2136 94.9392L32.1406 93.1891C33.8112 95.3038 35.2507 98.6065 36.0213 101.235C37.3262 98.7865 39.4296 95.7911 41.5116 94.0019L37.2069 95.0064C39.8595 83.2146 49.8364 74.7494 61.2613 74.7494V73.8516C49.3277 73.8516 38.922 82.6714 36.2136 94.9392Z" fill="#3F3D56"/>
<path d="M54.9645 112.904H29.2296C28.1381 112.904 27.25 112.098 27.25 111.108C27.25 110.118 28.1381 109.312 29.2296 109.312H54.9645C56.056 109.312 56.9441 110.118 56.9441 111.108C56.9441 112.098 56.056 112.904 54.9645 112.904Z" fill="#E6E6E6"/>
<path d="M226.16 107.061L225.901 125.393L220.872 141.736L216.852 140.376L218.636 125.396L218.402 105.125L226.16 107.061Z" fill="#FFB6B6"/>
<path d="M220.854 144.368C221.326 142.018 220.461 139.907 218.923 139.653C217.385 139.399 215.755 141.098 215.284 143.448C214.812 145.798 215.677 147.909 217.215 148.163C218.753 148.417 220.383 146.718 220.854 144.368Z" fill="#FFB6B6"/>
<path d="M220.06 85.2266C220.06 85.2266 228.675 85.3341 228.668 89.4851C228.664 91.8287 228.109 113.108 226.564 126.034C225.374 136.003 223.1 138.604 223.1 138.604L217.656 127.381L220.06 85.2266Z" fill="#E6E6E6"/>
<path d="M219.836 122.681H190.742C193.181 117.745 194.68 113.044 192.336 109.305L219.836 107.859C218.462 112.907 218.294 117.861 219.836 122.681Z" fill="#FFB6B6"/>
<path d="M216.246 78.9418L204.689 78.2188L199.906 83.6413L197.481 84.0412C193.847 84.6406 191.259 87.5825 191.421 90.9299L192.364 110.373L219.99 112.2L226.609 86.8812L218.638 84.0028L216.246 78.9418Z" fill="#E6E6E6"/>
<path d="M145.765 84.8077C146.585 85.4768 147.17 86.2584 147.48 87.0165L155.735 92.9433L152.511 96.424L144.484 90.0372C143.62 89.8382 142.701 89.3925 141.881 88.7234C140.008 87.1948 139.359 85.0791 140.431 83.9978C141.504 82.9165 143.892 83.2791 145.765 84.8077Z" fill="#FFB6B6"/>
<path d="M204.135 89.7941L172.503 109.168L149.828 94.8557L153.232 89.2624L171.078 98.6698L187.536 87.2074C193.397 82.2142 200.742 83.1821 204.135 89.7941Z" fill="#E6E6E6"/>
<path d="M209.786 76.5943C214.521 76.5943 218.36 73.1122 218.36 68.8167C218.36 64.5212 214.521 61.0391 209.786 61.0391C205.05 61.0391 201.211 64.5212 201.211 68.8167C201.211 73.1122 205.05 76.5943 209.786 76.5943Z" fill="#FFB6B6"/>
<path d="M221.442 66.9051V68.4135L211.772 65.9445L204.522 67.3226C204.437 66.3216 204.111 65.3385 203.566 64.4676C203.945 65.8644 203.988 66.945 203.586 67.5022L202.611 67.6862C202.453 67.2957 202.146 66.9545 201.745 66.748C201.706 66.7256 201.656 66.7076 201.612 66.7211C201.542 66.7435 201.537 66.8243 201.537 66.8872C201.547 67.2194 201.557 67.5515 201.572 67.8837L198.771 68.4135V66.9051C196.083 61.4205 203.166 56.6745 210.109 56.6253C213.242 56.6031 216.073 57.7745 218.126 59.6329C220.175 61.4959 221.442 64.0636 221.442 66.9051Z" fill="#2F2E41"/>
<path d="M226.883 84.5928L226.153 84.538C226.205 84.3214 226.257 84.1075 226.305 83.8909C226.709 82.073 225.818 79.7589 225.753 78.0123C225.409 79.8576 225.997 82.1279 225.389 83.8799C225.321 84.0746 222.679 85.3309 222.606 85.5228C219.682 84.5527 216.636 81.4531 213.187 83.2635C211.148 84.3342 208.821 83.8649 206.505 83.3746C205.932 83.2533 205.852 80.6858 205.285 80.5849C204.269 80.4042 202.777 82.7382 201.82 82.8294L205.78 68.9134C205.78 61.3432 205.006 53.4006 215.579 56.0774C218.238 56.7507 220.869 57.2784 222.832 59.269C224.794 61.2623 226.191 64.048 226.687 67.2204C226.985 69.1342 228.848 75.6324 226.883 84.5928Z" fill="#2F2E41"/>
<path d="M220.054 224.531L215.334 224.632L212.703 205.4L219.668 205.25L220.054 224.531Z" fill="#FFB7B7"/>
<path d="M203.859 233.464C203.859 234.187 204.425 234.773 205.123 234.773H214.491C214.491 234.773 215.413 231.412 219.172 229.966L219.431 234.773H224.264L223.679 227.043C223.679 227.043 224.971 222.907 222.286 220.792C219.602 218.678 221.776 218.972 221.776 218.972L220.72 214.188L213.417 214.966L213.364 222.478L209.82 229.933L204.622 232.262C204.159 232.469 203.859 232.942 203.859 233.464Z" fill="#2F2E41"/>
<path d="M205.697 221.397L201.16 222.581L193.234 204.584L199.93 202.836L205.697 221.397Z" fill="#FFB7B7"/>
<path d="M192.53 233.761C192.733 234.46 193.444 234.897 194.119 234.737L203.181 232.58C203.181 232.58 203.132 229.117 206.363 226.852L207.959 231.443L212.633 230.331L209.904 222.988C209.904 222.988 209.998 218.689 206.809 217.262C203.621 215.835 205.806 215.62 205.806 215.62L203.446 211.234L196.6 213.669L198.65 220.946L197.308 228.973L192.931 232.423C192.542 232.73 192.384 233.256 192.53 233.761Z" fill="#2F2E41"/>
<path d="M217.163 121.547L220.133 122.445C224.775 130.222 226.744 140.551 226.483 153.005L221.208 208.943H212.579L206.264 146.626L195.128 170.016L203.276 208.943L195.128 209.697L178.719 169.219L190.147 122.173L217.163 121.547Z" fill="#2F2E41"/>
</g>
<defs>
<clipPath id="clip0_1455_5051">
<rect width="270" height="235" fill="white"/>
</clipPath>
</defs>
</svg>
