<svg width="24" height="24" viewBox="0 0 24 24" fill="none" xmlns="http://www.w3.org/2000/svg">
<path d="M12.2028 11.8022L10.7928 13.2122C10.0128 13.9922 10.0128 15.2622 10.7928 16.0422C11.5728 16.8222 12.8428 16.8222 13.6228 16.0422L15.8428 13.8222C17.4028 12.2622 17.4028 9.73219 15.8428 8.16219C14.2828 6.60219 11.7528 6.60219 10.1828 8.16219L7.76281 10.5822C6.42281 11.9222 6.42281 14.0922 7.76281 15.4322" stroke="#292D32" stroke-width="1.5" stroke-linecap="round" stroke-linejoin="round"/>
<path d="M9 22H15C20 22 22 20 22 15V9C22 4 20 2 15 2H9C4 2 2 4 2 9V15C2 20 4 22 9 22Z" stroke="#292D32" stroke-width="1.5" stroke-linecap="round" stroke-linejoin="round"/>
</svg>
