<svg width="24" height="24" viewBox="0 0 24 24" fill="none" xmlns="http://www.w3.org/2000/svg">
<path d="M2.71301 17.0231L4.45301 13.5431C4.93301 12.5731 4.93301 11.4431 4.45301 10.4731L2.71301 6.98315C1.22301 4.00315 4.43301 0.853148 7.38301 2.41315L8.92301 3.23315C9.14301 3.34315 9.31301 3.52315 9.40301 3.74315L15.093 16.3931C15.323 16.9131 15.113 17.5231 14.613 17.7831L7.37301 21.5931C4.43301 23.1531 1.22301 20.0031 2.71301 17.0231Z" fill="#292D32" fill-opacity="0.5"/>
<path d="M16.3132 15.5965L12.5832 7.31654C12.1632 6.38654 13.1632 5.44654 14.0632 5.92654L19.8332 8.96654C22.2832 10.2565 22.2832 13.7565 19.8332 15.0465L17.7932 16.1165C17.2432 16.3965 16.5732 16.1665 16.3132 15.5965Z" fill="#292D32" fill-opacity="0.5"/>
</svg>
