<svg xmlns="http://www.w3.org/2000/svg" width="48" height="48" viewBox="0 0 48 48">
  <g id="document-filter" transform="translate(-620 -316)">
    <g id="Group" transform="translate(624.02 320)">
      <path id="Vector" d="M2.68,0h17.8a2.714,2.714,0,0,1,2.7,2.7V5.66a5.114,5.114,0,0,1-1.34,3.1l-5.8,5.12a4.424,4.424,0,0,0-1.34,3.1v5.8a3.047,3.047,0,0,1-1.22,2.3L11.6,26.3A2.749,2.749,0,0,1,7.42,24V16.86a5.264,5.264,0,0,0-1.08-2.84L1.22,8.62A4.441,4.441,0,0,1,0,5.92V2.82A2.714,2.714,0,0,1,2.68,0Z" fill="none" stroke="#555770" stroke-linecap="round" stroke-linejoin="round" stroke-width="1.5"/>
    </g>
    <path id="Vector-2" data-name="Vector" d="M0,19.52v6c0,10,4,14,14,14H26c10,0,14-4,14-14v-12c0-6.24-1.56-10.16-5.18-12.2A17.6,17.6,0,0,0,29.9,0" transform="translate(624 320.48)" fill="none" stroke="#555770" stroke-linecap="round" stroke-linejoin="round" stroke-width="1.5"/>
    <path id="Vector-3" data-name="Vector" d="M0,0H10" transform="translate(646 342)" fill="none" stroke="#555770" stroke-linecap="round" stroke-linejoin="round" stroke-width="1.5"/>
    <path id="Vector-4" data-name="Vector" d="M0,0H14" transform="translate(642 350)" fill="none" stroke="#555770" stroke-linecap="round" stroke-linejoin="round" stroke-width="1.5"/>
    <path id="Vector-5" data-name="Vector" d="M0,0H48V48H0Z" transform="translate(668 364) rotate(180)" fill="none" opacity="0"/>
  </g>
</svg>
