<svg width="36" height="36" viewBox="0 0 36 36" fill="none" xmlns="http://www.w3.org/2000/svg">
<path d="M15.0312 26.2807C15.7213 27.1657 16.8012 27.7507 18.0012 27.7507C20.0712 27.7507 21.7512 26.0707 21.7512 24.0007C21.7512 23.1457 21.4662 22.3507 20.9862 21.7207" stroke="#292D32" stroke-width="1.5" stroke-linecap="round" stroke-linejoin="round"/>
<path d="M4.23 31.2C3.315 30.06 3 28.245 3 25.5V22.5C3 16.5 4.5 15 10.5 15H25.5C26.04 15 26.535 15.015 27 15.045C31.755 15.315 33 17.04 33 22.5V25.5C33 31.5 31.5 33 25.5 33H10.5C9.96 33 9.465 32.985 9 32.955" stroke="#292D32" stroke-width="1.5" stroke-linecap="round" stroke-linejoin="round"/>
<path d="M9 15V12C9 7.035 10.5 3 18 3C24.225 3 26.31 5.07 26.85 8.34" stroke="#292D32" stroke-width="1.5" stroke-linecap="round" stroke-linejoin="round"/>
<path d="M33 3L3 33" stroke="#292D32" stroke-width="1.5" stroke-linecap="round" stroke-linejoin="round"/>
</svg>
