<svg xmlns="http://www.w3.org/2000/svg" width="48" height="48" viewBox="0 0 48 48">
  <g id="money-recive" transform="translate(-364 -444)">
    <g id="Group" transform="translate(383 459)">
      <path id="Vector" d="M0,10.52a3.421,3.421,0,0,0,3.34,3.5H7.1A2.978,2.978,0,0,0,10,10.96a2.642,2.642,0,0,0-1.98-2.9L2,5.96A2.628,2.628,0,0,1,.02,3.06,2.991,2.991,0,0,1,2.92,0H6.68a3.421,3.421,0,0,1,3.34,3.5" transform="translate(0 1.98)" fill="none" stroke="#555770" stroke-linecap="round" stroke-linejoin="round" stroke-width="1.5"/>
      <path id="Vector-2" data-name="Vector" d="M0,0V18" transform="translate(5)" fill="none" stroke="#555770" stroke-linecap="round" stroke-linejoin="round" stroke-width="1.5"/>
    </g>
    <path id="Vector-3" data-name="Vector" d="M40,20A20,20,0,1,1,20,0" transform="translate(368 448)" fill="none" stroke="#555770" stroke-linecap="round" stroke-linejoin="round" stroke-width="1.5"/>
    <path id="Vector-4" data-name="Vector" d="M0,0V8H8" transform="translate(398 450)" fill="none" stroke="#555770" stroke-linecap="round" stroke-linejoin="round" stroke-width="1.5"/>
    <path id="Vector-5" data-name="Vector" d="M10,0,0,10" transform="translate(398 448)" fill="none" stroke="#555770" stroke-linecap="round" stroke-linejoin="round" stroke-width="1.5"/>
    <path id="Vector-6" data-name="Vector" d="M0,0H48V48H0Z" transform="translate(364 444)" fill="none" opacity="0"/>
  </g>
</svg>
