<svg id="scissor" xmlns="http://www.w3.org/2000/svg" width="24" height="24" viewBox="0 0 24 24">
  <path id="Vector" d="M7,20h6c5,0,7-2,7-7V7c0-5-2-7-7-7H7C2,0,0,2,0,7v6C0,18,2,20,7,20Z" transform="translate(2 2)" fill="none" stroke="#555770" stroke-linecap="round" stroke-linejoin="round" stroke-width="1"/>
  <g id="Group" transform="translate(-684 -386)">
    <path id="Vector-2" data-name="Vector" d="M3.84,1.92A1.92,1.92,0,1,1,1.92,0,1.92,1.92,0,0,1,3.84,1.92Z" transform="translate(690.5 393.06)" fill="none" stroke="#555770" stroke-linecap="round" stroke-linejoin="round" stroke-width="1"/>
    <path id="Vector-3" data-name="Vector" d="M3.84,1.92A1.92,1.92,0,1,1,1.92,0,1.92,1.92,0,0,1,3.84,1.92Z" transform="translate(690.5 399.1)" fill="none" stroke="#555770" stroke-linecap="round" stroke-linejoin="round" stroke-width="1"/>
    <path id="Vector-4" data-name="Vector" d="M7.34,0,0,5.49" transform="translate(694.16 394.7)" fill="none" stroke="#555770" stroke-linecap="round" stroke-linejoin="round" stroke-width="1"/>
    <path id="Vector-5" data-name="Vector" d="M7.34,5.49,0,0" transform="translate(694.16 395.79)" fill="none" stroke="#555770" stroke-linecap="round" stroke-linejoin="round" stroke-width="1"/>
  </g>
  <path id="Vector-6" data-name="Vector" d="M0,0H24V24H0Z" fill="none" opacity="0"/>
</svg>
