<svg width="21" height="24" viewBox="0 0 21 24" fill="none" xmlns="http://www.w3.org/2000/svg">
<path d="M10.9091 14.1818H9.81815C9.49087 14.1818 9.27271 13.9636 9.27271 13.6364C9.27271 13.3091 9.49092 13.0909 9.81815 13.0909H11.4545C11.7818 13.0909 11.9999 12.8727 11.9999 12.5455C11.9999 12.2182 11.7818 12 11.4546 12H10.9091V11.4546C10.9091 11.1273 10.6909 10.9091 10.3637 10.9091C10.0364 10.9091 9.81824 11.1273 9.81824 11.4546V12C8.89096 12 8.18188 12.7091 8.18188 13.6364C8.18188 14.5636 8.89096 15.2727 9.81824 15.2727H10.9092C11.2364 15.2727 11.4546 15.4909 11.4546 15.8182C11.4546 16.1454 11.2364 16.3636 10.9092 16.3636H9.27281C8.94553 16.3636 8.72737 16.5818 8.72737 16.909C8.72737 17.2363 8.94557 17.4545 9.27281 17.4545H9.81824V18C9.81824 18.3273 10.0364 18.5454 10.3637 18.5454C10.6909 18.5454 10.9091 18.3272 10.9091 18V17.4546C11.8364 17.4546 12.5455 16.7455 12.5455 15.8182C12.5454 14.8909 11.8364 14.1818 10.9091 14.1818Z" fill="black"/>
<path d="M18.2727 9.65459L14.5636 5.61823C14.3454 5.40002 14.0182 5.40002 13.8 5.56367C13.5818 5.78187 13.5818 6.1091 13.7454 6.32731L17.4545 10.3637C18.8182 11.8909 19.5818 13.8546 19.5818 15.8727V21.2727C19.5818 22.2 18.8727 22.9091 17.9454 22.9091H2.72728C1.8 22.9091 1.09092 22.2 1.09092 21.2727V15.9273C1.09092 13.8546 1.85456 11.8909 3.2182 10.4182L6.76364 6.54551H9.8182V8.78187C6.76364 9.05459 4.36364 11.6182 4.36364 14.7273C4.36364 18.0546 7.03636 20.7273 10.3636 20.7273C13.6909 20.7273 16.3636 18.0546 16.3636 14.7273C16.3636 11.6182 13.9636 9.05459 10.9091 8.78187V6.54551H12C12.3273 6.54551 12.5454 6.32731 12.5454 6.00007C12.5454 5.67284 12.3272 5.45463 12 5.45463H6.54544C6.3818 5.45463 6.27272 5.5092 6.16364 5.61827L2.45456 9.65463C0.872719 11.4 0 13.6364 0 15.9273V21.2727C0 22.8 1.2 24 2.72728 24H18C19.5273 24 20.7273 22.8 20.7273 21.2727V15.9273C20.7273 13.6364 19.8546 11.4 18.2727 9.65459ZM15.2727 14.7273C15.2727 17.4546 13.0909 19.6364 10.3636 19.6364C7.63636 19.6364 5.45456 17.4546 5.45456 14.7273C5.45456 12 7.63636 9.81823 10.3636 9.81823C13.0909 9.81823 15.2727 12 15.2727 14.7273Z" fill="black"/>
<path d="M15.7092 0.218203C15.6001 0.0545625 15.4365 0 15.2728 0H5.45467C5.29103 0 5.12739 0.109078 5.01831 0.218203C4.90923 0.327328 4.85467 0.545484 4.96375 0.709125L6.05467 3.98184C6.10923 4.20005 6.32739 4.36364 6.54559 4.36364C6.60015 4.36364 6.65467 4.36364 6.70923 4.30908C6.98195 4.2 7.14559 3.92728 7.03651 3.6L6.21831 1.09092H14.5092L13.8002 3.27272H8.72739C8.40011 3.27272 8.18195 3.49092 8.18195 3.81816C8.18195 4.14539 8.40015 4.36359 8.72739 4.36359H14.1819C14.4002 4.36359 14.6183 4.19995 14.6729 3.9818L15.7637 0.709078C15.8728 0.545438 15.8183 0.381797 15.7092 0.218203Z" fill="black"/>
</svg>
