<svg id="vuesax_linear_messages" data-name="vuesax/linear/messages" xmlns="http://www.w3.org/2000/svg" width="24" height="24" viewBox="0 0 24 24">
  <g id="messages" transform="translate(-364 -250)">
    <path id="Vector" d="M15,7a7.262,7.262,0,0,1-7.5,7l-.93,1.12-.55.66a1,1,0,0,1-1.68-.23L3,12.6A6.854,6.854,0,0,1,0,7,7.262,7.262,0,0,1,7.5,0a7.514,7.514,0,0,1,6.8,4.07A6.458,6.458,0,0,1,15,7Z" transform="translate(366 252)" fill="none" stroke="#555770" stroke-linecap="round" stroke-linejoin="round" stroke-width="1"/>
    <path id="Vector-2" data-name="Vector" d="M13.43,6.79a6.854,6.854,0,0,1-3,5.6L9.09,15.34a1,1,0,0,1-1.68.23L5.93,13.79A7.6,7.6,0,0,1,0,11.05L.93,9.93a7.262,7.262,0,0,0,7.5-7A6.458,6.458,0,0,0,7.73,0,7.115,7.115,0,0,1,13.43,6.79Z" transform="translate(372.57 256.07)" fill="none" stroke="#555770" stroke-linecap="round" stroke-linejoin="round" stroke-width="1"/>
    <path id="Vector-3" data-name="Vector" d="M0,0H5" transform="translate(371 259)" fill="none" stroke="#555770" stroke-linecap="round" stroke-linejoin="round" stroke-width="1"/>
    <path id="Vector-4" data-name="Vector" d="M0,0H24V24H0Z" transform="translate(364 250)" fill="none" opacity="0"/>
  </g>
</svg>
