<svg xmlns="http://www.w3.org/2000/svg" width="48" height="48" viewBox="0 0 48 48">
  <g id="vuesax_linear_sms-tracking" data-name="vuesax/linear/sms-tracking" transform="translate(-620 -250)">
    <g id="sms-tracking" transform="translate(620 250)">
      <path id="Vector" d="M0,10C0,3,4,0,10,0H30c6,0,10,3,10,10V24c0,7-4,10-10,10H10" transform="translate(4 7)" fill="none" stroke="#06c270" stroke-linecap="round" stroke-linejoin="round" stroke-width="2"/>
      <path id="Vector-2" data-name="Vector" d="M20,0,13.74,5a6.331,6.331,0,0,1-7.5,0L0,0" transform="translate(14 18)" fill="none" stroke="#06c270" stroke-linecap="round" stroke-linejoin="round" stroke-width="2"/>
      <path id="Vector-3" data-name="Vector" d="M0,0H12" transform="translate(4 33)" fill="none" stroke="#06c270" stroke-linecap="round" stroke-linejoin="round" stroke-width="2"/>
      <path id="Vector-4" data-name="Vector" d="M0,0H6" transform="translate(4 25)" fill="none" stroke="#06c270" stroke-linecap="round" stroke-linejoin="round" stroke-width="2"/>
      <path id="Vector-5" data-name="Vector" d="M0,0H48V48H0Z" fill="none" opacity="0"/>
    </g>
  </g>
</svg>
