<svg id="vuesax_linear_edit" data-name="vuesax/linear/edit" xmlns="http://www.w3.org/2000/svg" width="24" height="24" viewBox="0 0 24 24">
  <path id="Vector" d="M9.263,1.439l-8.21,8.69a3.05,3.05,0,0,0-.67,1.43L.013,14.8a1.527,1.527,0,0,0,1.87,1.77l3.22-.55a2.871,2.871,0,0,0,1.39-.75l8.21-8.69c1.42-1.5,2.06-3.21-.15-5.3C12.353-.791,10.683-.061,9.263,1.439Z" transform="translate(3.997 2.16)" fill="none" stroke="#555770" stroke-linecap="round" stroke-linejoin="round" stroke-width="1"/>
  <path id="Vector-2" data-name="Vector" d="M0,0A6.126,6.126,0,0,0,5.45,5.15" transform="translate(11.89 5.051)" fill="none" stroke="#555770" stroke-linecap="round" stroke-linejoin="round" stroke-width="1"/>
  <path id="Vector-3" data-name="Vector" d="M0,0H18" transform="translate(3 22)" fill="none" stroke="#555770" stroke-linecap="round" stroke-linejoin="round" stroke-width="1"/>
  <path id="Vector-4" data-name="Vector" d="M0,0H24V24H0Z" fill="none" opacity="0"/>
</svg>
