<svg id="vuesax_linear_copy" data-name="vuesax/linear/copy" xmlns="http://www.w3.org/2000/svg" width="24" height="24" viewBox="0 0 24 24">
  <g id="copy" transform="translate(-682 -382)">
    <path id="Vector" d="M14,4.9V9.1c0,3.5-1.4,4.9-4.9,4.9H4.9C1.4,14,0,12.6,0,9.1V4.9C0,1.4,1.4,0,4.9,0H9.1C12.6,0,14,1.4,14,4.9Z" transform="translate(684 390)" fill="none" stroke="#555770" stroke-linecap="round" stroke-linejoin="round" stroke-width="1"/>
    <path id="Vector-2" data-name="Vector" d="M14,4.9V9.1c0,3.5-1.4,4.9-4.9,4.9H8V10.9C8,7.4,6.6,6,3.1,6H0V4.9C0,1.4,1.4,0,4.9,0H9.1C12.6,0,14,1.4,14,4.9Z" transform="translate(690 384)" fill="none" stroke="#555770" stroke-linecap="round" stroke-linejoin="round" stroke-width="1"/>
    <path id="Vector-3" data-name="Vector" d="M0,0H24V24H0Z" transform="translate(682 382)" fill="none" opacity="0"/>
  </g>
</svg>
