<svg xmlns="http://www.w3.org/2000/svg" width="48" height="48" viewBox="0 0 48 48">
  <g id="vuesax_linear_magic-star" data-name="vuesax/linear/magic-star" transform="translate(-556 -188)">
    <g id="magic-star" transform="translate(556 188)">
      <g id="Group" transform="translate(4.203 4.006)">
        <g id="Group-2" data-name="Group">
          <path id="Vector" d="M30.377,4.274l-.14,7.58a4.161,4.161,0,0,0,1.48,3.04l4.96,3.76c3.18,2.4,2.66,5.34-1.14,6.54l-6.46,2.02a4.169,4.169,0,0,0-2.5,2.62l-1.54,5.88c-1.22,4.64-4.26,5.1-6.78,1.02l-3.52-5.7a4.117,4.117,0,0,0-3.36-1.76l-6.68.34c-4.78.24-6.14-2.52-3.02-6.16l3.96-4.6a4.162,4.162,0,0,0,.74-3.54l-2.02-6.46c-1.18-3.8.94-5.9,4.72-4.66l5.9,1.94a4.173,4.173,0,0,0,3.34-.52l6.16-4.44C27.8-1.226,30.457.174,30.377,4.274Z" transform="translate(0)" fill="none" stroke="#555770" stroke-linecap="round" stroke-linejoin="round" stroke-width="1.5"/>
        </g>
        <path id="Vector-2" data-name="Vector" d="M6.06,6.06,0,0" transform="translate(33.557 33.934)" fill="none" stroke="#555770" stroke-linecap="round" stroke-linejoin="round" stroke-width="1.5"/>
      </g>
      <path id="Vector-3" data-name="Vector" d="M0,0H48V48H0Z" fill="none" opacity="0"/>
    </g>
  </g>
</svg>
