<svg id="vuesax_linear_close-square" data-name="vuesax/linear/close-square" xmlns="http://www.w3.org/2000/svg" width="24" height="24" viewBox="0 0 24 24">
  <g id="close-square" transform="translate(-108 -316)">
    <g id="Vector" transform="translate(110 318)" fill="none" stroke-linecap="round" stroke-linejoin="round">
      <path d="M7,20h6c5,0,7-2,7-7V7c0-5-2-7-7-7H7C2,0,0,2,0,7v6C0,18,2,20,7,20Z" stroke="none"/>
      <path d="M 13 19 C 15.27581977844238 19 16.75906944274902 18.57670974731445 17.66789054870605 17.66789054870605 C 18.57670974731445 16.75906944274902 19 15.27581977844238 19 13 L 19 7 C 19 4.724180221557617 18.57670974731445 3.240930080413818 17.66789054870605 2.332109928131104 C 16.75906944274902 1.423290014266968 15.27581977844238 1 13 1 L 7 1 C 4.724180221557617 1 3.240930080413818 1.423290014266968 2.332109928131104 2.332109928131104 C 1.423290014266968 3.240930080413818 1 4.724180221557617 1 7 L 1 13 C 1 15.27581977844238 1.423290014266968 16.75906944274902 2.332109928131104 17.66789054870605 C 3.240930080413818 18.57670974731445 4.724180221557617 19 7 19 L 13 19 M 13 20 L 7 20 C 2 20 0 18 0 13 L 0 7 C 0 2 2 0 7 0 L 13 0 C 18 0 20 2 20 7 L 20 13 C 20 18 18 20 13 20 Z" stroke="none" fill="#555770"/>
    </g>
    <path id="Vector-2" data-name="Vector" d="M0,0H24V24H0Z" transform="translate(108 316)" fill="none" opacity="0"/>
  </g>
</svg>
